/* XPM */
static char * tkwice24_xpm[] = {
"24 24 563 2",
"  	c #B0988D",
". 	c #B9A295",
"+ 	c #AB958B",
"@ 	c #AB948A",
"# 	c #A99389",
"$ 	c #A99289",
"% 	c #A68F86",
"& 	c #A68F85",
"* 	c #A28A82",
"= 	c #A6928E",
"- 	c #B3A9AB",
"; 	c #A37275",
"> 	c #B4626C",
", 	c #C0727C",
"' 	c #CC8089",
") 	c #D38792",
"! 	c #D38A95",
"~ 	c #D48B98",
"{ 	c #D38A97",
"] 	c #D08693",
"^ 	c #CF858F",
"/ 	c #CB8190",
"( 	c #C98394",
"_ 	c #CA8595",
": 	c #AE978D",
"< 	c #B8A095",
"[ 	c #AB958A",
"} 	c #A59086",
"| 	c #A58E84",
"1 	c #A28D83",
"2 	c #A08B82",
"3 	c #9F8981",
"4 	c #9D8781",
"5 	c #B8ABAC",
"6 	c #BCB4BC",
"7 	c #A77E87",
"8 	c #BA757F",
"9 	c #C68189",
"0 	c #CC848C",
"a 	c #D18893",
"b 	c #D18B96",
"c 	c #D08993",
"d 	c #D18895",
"e 	c #D08795",
"f 	c #CE8693",
"g 	c #CC8390",
"h 	c #C88290",
"i 	c #C28191",
"j 	c #907E75",
"k 	c #948077",
"l 	c #A79187",
"m 	c #A28E84",
"n 	c #9F8B80",
"o 	c #9D887F",
"p 	c #96817A",
"q 	c #857068",
"r 	c #9D8883",
"s 	c #AFA9AD",
"t 	c #ADA3A7",
"u 	c #AE888F",
"v 	c #C28D96",
"w 	c #DAA9B1",
"x 	c #FAD4DA",
"y 	c #DFA3AA",
"z 	c #D48F98",
"A 	c #D28D96",
"B 	c #D18A95",
"C 	c #D08996",
"D 	c #CF8695",
"E 	c #CC838F",
"F 	c #C27B89",
"G 	c #9E6571",
"H 	c #8C7B70",
"I 	c #86746C",
"J 	c #958277",
"K 	c #8B7A6F",
"L 	c #7D6960",
"M 	c #66514B",
"N 	c #4E322C",
"O 	c #674E49",
"P 	c #A09AA1",
"Q 	c #887A84",
"R 	c #946263",
"S 	c #A6787A",
"T 	c #BC949A",
"U 	c #EACFD8",
"V 	c #FFFDFF",
"W 	c #DBB7C2",
"X 	c #C48C94",
"Y 	c #C0828A",
"Z 	c #C2818C",
"` 	c #BF7F88",
" .	c #BD7B86",
"..	c #B87984",
"+.	c #A77078",
"@.	c #7A5157",
"#.	c #8C7C72",
"$.	c #7E6F66",
"%.	c #75635C",
"&.	c #59443E",
"*.	c #452A26",
"=.	c #3E201A",
"-.	c #512B25",
";.	c #826D6D",
">.	c #938B9C",
",.	c #815559",
"'.	c #8B595E",
").	c #966C72",
"!.	c #BDA0A6",
"~.	c #ECDFE5",
"{.	c #F2E5EA",
"].	c #C49CA1",
"^.	c #B78589",
"/.	c #AE7880",
"(.	c #AE7881",
"_.	c #B18087",
":.	c #B7878E",
"<.	c #A56F77",
"[.	c #916069",
"}.	c #6D494F",
"|.	c #614C46",
"1.	c #4C322D",
"2.	c #492A23",
"3.	c #41201A",
"4.	c #431F18",
"5.	c #4C201A",
"6.	c #683D3F",
"7.	c #7F6B77",
"8.	c #7D5D68",
"9.	c #834A4C",
"0.	c #844E54",
"a.	c #91676E",
"b.	c #C9B7BF",
"c.	c #EAE3E7",
"d.	c #D9C7CD",
"e.	c #C99D9F",
"f.	c #A9777C",
"g.	c #A4747C",
"h.	c #A4767F",
"i.	c #A37980",
"j.	c #A47F87",
"k.	c #9A6971",
"l.	c #89585F",
"m.	c #6C454C",
"n.	c #3F1F18",
"o.	c #3F1D18",
"p.	c #49211C",
"q.	c #51221D",
"r.	c #5A2421",
"s.	c #652C2D",
"t.	c #754B4F",
"u.	c #7C555A",
"v.	c #7F484B",
"w.	c #874E51",
"x.	c #89545B",
"y.	c #9B7078",
"z.	c #D8CDD6",
"A.	c #E6DEE4",
"B.	c #CBB0B5",
"C.	c #C49493",
"D.	c #A57378",
"E.	c #A5777C",
"F.	c #AA8183",
"G.	c #AA8282",
"H.	c #9B797A",
"I.	c #9C6D76",
"J.	c #8D5D65",
"K.	c #6D484E",
"L.	c #4A221C",
"M.	c #4F211D",
"N.	c #612724",
"O.	c #6B2A29",
"P.	c #722F30",
"Q.	c #753C41",
"R.	c #7B4A52",
"S.	c #85565C",
"T.	c #894F53",
"U.	c #8C565D",
"V.	c #8D5B63",
"W.	c #976C74",
"X.	c #E2DAE1",
"Y.	c #D9CDD2",
"Z.	c #D3AEAE",
"`.	c #C49392",
" +	c #A8797E",
".+	c #AB7E84",
"++	c #B3898B",
"@+	c #B28987",
"#+	c #99767C",
"$+	c #A16D75",
"%+	c #8E5F65",
"&+	c #6E494F",
"*+	c #5E2726",
"=+	c #662929",
"-+	c #7D3434",
";+	c #873C40",
">+	c #844146",
",+	c #7B434C",
"'+	c #87565C",
")+	c #8C555A",
"!+	c #8F565C",
"~+	c #8D5A63",
"{+	c #926369",
"]+	c #A17B83",
"^+	c #E8DFE5",
"/+	c #CEBBC0",
"(+	c #DFB6B2",
"_+	c #AF7C7D",
":+	c #A8787E",
"<+	c #AB7D82",
"[+	c #B28181",
"}+	c #A97C7D",
"|+	c #99767E",
"1+	c #A46D74",
"2+	c #905F66",
"3+	c #7F363A",
"4+	c #823A3E",
"5+	c #94464B",
"6+	c #944B54",
"7+	c #864B55",
"8+	c #834A53",
"9+	c #926366",
"0+	c #915D62",
"a+	c #925D64",
"b+	c #94616A",
"c+	c #9F767C",
"d+	c #B499A0",
"e+	c #D6C1C7",
"f+	c #BB9DA2",
"g+	c #BE9293",
"h+	c #A6777B",
"i+	c #A87A7D",
"j+	c #AC7C80",
"k+	c #B4827E",
"l+	c #A0767A",
"m+	c #9F757C",
"n+	c #A36C73",
"o+	c #8E5C63",
"p+	c #6E464B",
"q+	c #91454F",
"r+	c #924B54",
"s+	c #A55B66",
"t+	c #9A5761",
"u+	c #884B57",
"v+	c #8E565F",
"w+	c #986D74",
"x+	c #95636B",
"y+	c #96636B",
"z+	c #9B6870",
"A+	c #A77F86",
"B+	c #CCB9BF",
"C+	c #BC9EA5",
"D+	c #B89397",
"E+	c #B18589",
"F+	c #A87D81",
"G+	c #AA7D80",
"H+	c #AD7D7F",
"I+	c #AE7E7D",
"J+	c #9D777F",
"K+	c #A5757D",
"L+	c #A56E75",
"M+	c #905F65",
"N+	c #70494E",
"O+	c #A05C66",
"P+	c #995561",
"Q+	c #AC6571",
"R+	c #975963",
"S+	c #8D5159",
"T+	c #955F67",
"U+	c #AC909C",
"V+	c #95616B",
"W+	c #8B4F57",
"X+	c #793F47",
"Y+	c #916C76",
"Z+	c #BFB5BB",
"`+	c #A18795",
" @	c #A07B81",
".@	c #986D73",
"+@	c #A3767B",
"@@	c #AC7E81",
"#@	c #A77A7F",
"$@	c #9E7981",
"%@	c #AB787F",
"&@	c #A77277",
"*@	c #926368",
"=@	c #704A4F",
"-@	c #A96972",
";@	c #9F5F68",
">@	c #AE6973",
",@	c #8C5560",
"'@	c #915560",
")@	c #926B7A",
"!@	c #B3ADBC",
"~@	c #A08A93",
"{@	c #63535B",
"]@	c #504249",
"^@	c #A8A9B1",
"/@	c #DFE8EE",
"(@	c #E7EEF7",
"_@	c #E4ECF4",
":@	c #D0D5E1",
"<@	c #9B8A92",
"[@	c #85525A",
"}@	c #9D6B72",
"|@	c #A17A82",
"1@	c #A07781",
"2@	c #AD767B",
"3@	c #A76F75",
"4@	c #915F64",
"5@	c #6F484B",
"6@	c #AE6D75",
"7@	c #A66770",
"8@	c #AC6A73",
"9@	c #86505C",
"0@	c #6F444C",
"a@	c #8E8795",
"b@	c #D7DBE1",
"c@	c #C2C4C9",
"d@	c #5B5862",
"e@	c #65626B",
"f@	c #C7CFD9",
"g@	c #D5E1EB",
"h@	c #EBEEEF",
"i@	c #D6D7DA",
"j@	c #D7DBDC",
"k@	c #8F8C95",
"l@	c #5F4F59",
"m@	c #5D444D",
"n@	c #93717A",
"o@	c #A2747B",
"p@	c #AE737A",
"q@	c #A56B71",
"r@	c #905C61",
"s@	c #6E4649",
"t@	c #AF7077",
"u@	c #A86C73",
"v@	c #AD717B",
"w@	c #734753",
"x@	c #4B3A3F",
"y@	c #959197",
"z@	c #7D7A83",
"A@	c #5C575E",
"B@	c #423E45",
"C@	c #858C98",
"D@	c #D5E1EA",
"E@	c #D7E2EC",
"F@	c #D9DEE1",
"G@	c #C5BEB9",
"H@	c #BBB9B9",
"I@	c #544F5B",
"J@	c #494856",
"K@	c #42414B",
"L@	c #8B747C",
"M@	c #A87379",
"N@	c #AD7176",
"O@	c #A3696E",
"P@	c #8E5A5F",
"Q@	c #6C4449",
"R@	c #B0727A",
"S@	c #A96D74",
"T@	c #B2757E",
"U@	c #63454F",
"V@	c #42383E",
"W@	c #45343A",
"X@	c #47373E",
"Y@	c #463B43",
"Z@	c #4F4E5A",
"`@	c #A1ABB9",
" #	c #C8D4E0",
".#	c #D7E2EB",
"+#	c #CED1D3",
"@#	c #BCB4AE",
"##	c #8B8B92",
"$#	c #4A4955",
"%#	c #454754",
"&#	c #646873",
"*#	c #AB9195",
"=#	c #AD7378",
"-#	c #AA6E74",
";#	c #A3676D",
">#	c #8D595E",
",#	c #6B4146",
"'#	c #B1737B",
")#	c #AE7379",
"!#	c #BB7D86",
"~#	c #745965",
"{#	c #4F4853",
"]#	c #42353B",
"^#	c #48383E",
"/#	c #494049",
"(#	c #5D5D6B",
"_#	c #B0BBC8",
":#	c #BFCDDA",
"<#	c #C9D7E5",
"[#	c #BCC2CA",
"}#	c #908F91",
"|#	c #595964",
"1#	c #50515E",
"2#	c #4B4F5C",
"3#	c #888D99",
"4#	c #AF8589",
"5#	c #AB7175",
"6#	c #A96D73",
"7#	c #A4686D",
"8#	c #8E595F",
"9#	c #6C4348",
"0#	c #B3767F",
"a#	c #AF767B",
"b#	c #C3848B",
"c#	c #87656F",
"d#	c #6A666D",
"e#	c #443E45",
"f#	c #453B43",
"g#	c #4D4953",
"h#	c #5D606D",
"i#	c #A2ABB8",
"j#	c #C0CEDB",
"k#	c #C6D4E2",
"l#	c #AFBCC8",
"m#	c #838A96",
"n#	c #565A66",
"o#	c #4E5361",
"p#	c #6A7484",
"q#	c #7B6F7A",
"r#	c #AA7177",
"s#	c #AB6F75",
"t#	c #A3686C",
"u#	c #BD8086",
"v#	c #B3787E",
"w#	c #B77C82",
"x#	c #976671",
"y#	c #6B5D67",
"z#	c #56565E",
"A#	c #4B424A",
"B#	c #504750",
"C#	c #545661",
"D#	c #8791A0",
"E#	c #BFCEDD",
"F#	c #A2ADBB",
"G#	c #969DA9",
"H#	c #999DA6",
"I#	c #636574",
"J#	c #545765",
"K#	c #514852",
"L#	c #8B6169",
"M#	c #AA6C72",
"N#	c #A96B71",
"O#	c #A86A70",
"P#	c #A1646A",
"Q#	c #8D585D",
"R#	c #6D4348",
"S#	c #B57D82",
"T#	c #AC7379",
"U#	c #BD7F86",
"V#	c #AF777D",
"W#	c #7E6065",
"X#	c #817475",
"Y#	c #6A6062",
"Z#	c #5A4D50",
"`#	c #4C444C",
" $	c #787B85",
".$	c #A3ADBB",
"+$	c #8F97A4",
"@$	c #727683",
"#$	c #606169",
"$$	c #45454D",
"%$	c #3E373F",
"&$	c #6E5058",
"*$	c #A3696F",
"=$	c #AA6C71",
"-$	c #A86A6F",
";$	c #A7696E",
">$	c #A0646A",
",$	c #8C585D",
"'$	c #B37B81",
")$	c #B1787F",
"!$	c #C3848A",
"~$	c #BA7D83",
"{$	c #A57A7B",
"]$	c #BDA59C",
"^$	c #A28B82",
"/$	c #5B4E50",
"($	c #473B41",
"_$	c #4D464F",
":$	c #53535D",
"<$	c #595962",
"[$	c #46434D",
"}$	c #373439",
"|$	c #363237",
"1$	c #684B51",
"2$	c #9F676E",
"3$	c #A96B70",
"4$	c #A06469",
"5$	c #8C575C",
"6$	c #6B4147",
"7$	c #BA7E85",
"8$	c #B57A80",
"9$	c #C48489",
"0$	c #B97C7F",
"a$	c #A87275",
"b$	c #AF8D8B",
"c$	c #C7B7AF",
"d$	c #715F60",
"e$	c #514346",
"f$	c #433137",
"g$	c #453237",
"h$	c #493137",
"i$	c #483437",
"j$	c #533A40",
"k$	c #7A5056",
"l$	c #A26A6E",
"m$	c #A3686D",
"n$	c #A3676C",
"o$	c #A2666D",
"p$	c #A0656B",
"q$	c #9C6066",
"r$	c #8A555A",
"s$	c #6A4045",
"t$	c #BC8086",
"u$	c #B57B7F",
"v$	c #BD8084",
"w$	c #A46E70",
"x$	c #8E5F60",
"y$	c #895D5E",
"z$	c #9C8885",
"A$	c #806C6B",
"B$	c #5F4B4E",
"C$	c #4D3237",
"D$	c #583639",
"E$	c #653E41",
"F$	c #76494C",
"G$	c #815457",
"H$	c #8A5A5C",
"I$	c #8A595C",
"J$	c #89575B",
"K$	c #88575B",
"L$	c #885559",
"M$	c #835156",
"N$	c #683F43",
"O$	c #BD8387",
"P$	c #B07A7C",
"Q$	c #98696A",
"R$	c #6E494B",
"S$	c #604041",
"T$	c #614041",
"U$	c #6A5555",
"V$	c #665758",
"W$	c #5A4344",
"X$	c #57393B",
"Y$	c #5B3B3D",
"Z$	c #5E3D3F",
"`$	c #613F40",
" %	c #604040",
".%	c #614040",
"+%	c #603F40",
"@%	c #5F3E3F",
"#%	c #5F3D3F",
"$%	c #5F3D3E",
"%%	c #5E3C3E",
"&%	c #5E3C3F",
"*%	c #5D3B3E",
"=%	c #5E3B3D",
"-%	c #5D383B",
"  . + @ # $ % & * = - ; > , ' ) ! ~ { ] ^ / ( _ ",
": < [ } | 1 2 3 4 5 6 7 8 9 0 a b c d e f g h i ",
"j k l m n o p q r s t u v w x y z A B C D E F G ",
"H I J K L M N O P Q R S T U V W X Y Z `  ...+.@.",
"#.$.%.&.*.=.-.;.>.,.'.).!.~.{.].^./.(._.:.<.[.}.",
"|.1.2.3.4.5.6.7.8.9.0.a.b.c.d.e.f.g.h.i.j.k.l.m.",
"n.o.p.q.r.s.t.u.v.w.x.y.z.A.B.C.D.E.F.G.H.I.J.K.",
"L.M.N.O.P.Q.R.S.T.U.V.W.X.Y.Z.`. +.+++@+#+$+%+&+",
"*+=+-+;+>+,+'+)+!+~+{+]+^+/+(+_+:+<+[+}+|+1+2+&+",
"3+4+5+6+7+8+9+0+a+b+c+d+e+f+g+h+i+j+k+l+m+n+o+p+",
"q+r+s+t+u+v+w+x+y+z+A+B+C+D+E+F+G+H+I+J+K+L+M+N+",
"O+P+Q+R+S+T+U+V+W+X+Y+Z+`+ @.@+@<+@@#@$@%@&@*@=@",
"-@;@>@,@'@)@!@~@{@]@^@/@(@_@:@<@[@}@|@1@2@3@4@5@",
"6@7@8@9@0@a@b@c@d@e@f@g@h@i@j@k@l@m@n@o@p@q@r@s@",
"t@u@v@w@x@y@z@A@B@C@D@E@F@G@H@I@J@K@L@M@N@O@P@Q@",
"R@S@T@U@V@W@X@Y@Z@`@ #.#+#@###$#%#&#*#=#-#;#>#,#",
"'#)#!#~#{#]#^#/#(#_#:#<#[#}#|#1#2#3#4#5#6#7#8#9#",
"0#a#b#c#d#e#f#g#h#i#j#k#l#m#n#o#p#q#r#s#6#t#>#9#",
"u#v#w#x#y#z#A#B#C#D#E#F#G#H#I#J#K#L#M#N#O#P#Q#R#",
"S#T#U#V#W#X#Y#Z#`# $.$+$@$#$$$%$&$*$=$-$;$>$,$9#",
"'$)$!$~${$]$^$/$($_$:$<$[$}$|$1$2$=$=$3$;$4$5$6$",
"7$8$9$0$a$b$c$d$e$f$g$h$i$j$k$l$m$n$o$o$p$q$r$s$",
"t$u$v$w$x$y$z$A$B$C$D$E$F$G$H$I$J$J$K$K$K$L$M$N$",
"O$P$Q$R$S$T$U$V$W$X$Y$Z$`$ %.%+%@%#%$%%%&%*%=%-%"};
