/* XPM */
static char * tkwice32_xpm[] = {
"32 32 974 2",
"  	c #AD968D",
". 	c #B6A294",
"+ 	c #AC978A",
"@ 	c #AD978C",
"# 	c #AC968A",
"$ 	c #AB9589",
"% 	c #A9938A",
"& 	c #A99289",
"* 	c #A89087",
"= 	c #A79085",
"- 	c #A79084",
"; 	c #A38A83",
"> 	c #9C837E",
", 	c #AEA3A2",
"' 	c #B9B2B7",
") 	c #9B585C",
"! 	c #AE5864",
"~ 	c #BA6873",
"{ 	c #C47780",
"] 	c #CF838A",
"^ 	c #D38590",
"/ 	c #D38895",
"( 	c #D58A97",
"_ 	c #D58C9A",
": 	c #D48A97",
"< 	c #D18795",
"[ 	c #CF8490",
"} 	c #CF848E",
"| 	c #CB8090",
"1 	c #CA8393",
"2 	c #CA8596",
"3 	c #CB8596",
"4 	c #AE988C",
"5 	c #BBA398",
"6 	c #AE978D",
"7 	c #A89188",
"8 	c #A89286",
"9 	c #A59086",
"0 	c #A38D84",
"a 	c #A18C83",
"b 	c #9C847D",
"c 	c #B4A19C",
"d 	c #BCB1B3",
"e 	c #A5929A",
"f 	c #A96F75",
"g 	c #BD717B",
"h 	c #C0767F",
"i 	c #C77D86",
"j 	c #CE838B",
"k 	c #D38893",
"l 	c #D38B96",
"m 	c #D18B95",
"n 	c #D08893",
"o 	c #D18995",
"p 	c #D08793",
"q 	c #CF8692",
"r 	c #CF8691",
"s 	c #CC8290",
"t 	c #C7808D",
"u 	c #C98392",
"v 	c #C28191",
"w 	c #927F77",
"x 	c #958279",
"y 	c #A69086",
"z 	c #A69187",
"A 	c #A48F86",
"B 	c #A48E83",
"C 	c #A28D83",
"D 	c #9F8A81",
"E 	c #9F8980",
"F 	c #9D887F",
"G 	c #9B857E",
"H 	c #9F8985",
"I 	c #B2A5A9",
"J 	c #D5DAE6",
"K 	c #B7B6BD",
"L 	c #A37580",
"M 	c #B3757F",
"N 	c #C1848E",
"O 	c #D08D95",
"P 	c #CB858E",
"Q 	c #CF8893",
"R 	c #D18B96",
"S 	c #D08994",
"T 	c #D18A98",
"U 	c #CF8895",
"V 	c #CF8695",
"W 	c #CD8593",
"X 	c #CB848F",
"Y 	c #C27C8A",
"Z 	c #9E6B78",
"` 	c #917F76",
" .	c #8C7A72",
"..	c #9B867D",
"+.	c #9A867C",
"@.	c #96837B",
"#.	c #978379",
"$.	c #948176",
"%.	c #917E76",
"&.	c #8F7A73",
"*.	c #826E68",
"=.	c #6A554E",
"-.	c #A18E8A",
";.	c #A69FA3",
">.	c #969194",
",.	c #9F8A8D",
"'.	c #A87D86",
").	c #B98992",
"!.	c #C19096",
"~.	c #E5C3CC",
"{.	c #FFE8ED",
"].	c #DBAAB0",
"^.	c #C78B92",
"/.	c #C7868E",
"(.	c #C5838D",
"_.	c #C4818D",
":.	c #C5818E",
"<.	c #C17D8B",
"[.	c #C07B87",
"}.	c #B9757F",
"|.	c #A36573",
"1.	c #764A53",
"2.	c #8D7B70",
"3.	c #87756B",
"4.	c #8E7B72",
"5.	c #8E7B71",
"6.	c #8A796E",
"7.	c #86756A",
"8.	c #806D65",
"9.	c #665550",
"0.	c #4D3833",
"a.	c #3F241E",
"b.	c #75615F",
"c.	c #9C9A9F",
"d.	c #838A97",
"e.	c #825A58",
"f.	c #915D5F",
"g.	c #A1787A",
"h.	c #A77E84",
"i.	c #C5A5AC",
"j.	c #E7D2DC",
"k.	c #FFF7FD",
"l.	c #D9BDC9",
"m.	c #BC8D96",
"n.	c #B67B83",
"o.	c #B77A84",
"p.	c #B67781",
"q.	c #B3747E",
"r.	c #B1717B",
"s.	c #AE727C",
"t.	c #A56D76",
"u.	c #8E5E65",
"v.	c #6B464D",
"w.	c #917F75",
"x.	c #8B7C72",
"y.	c #94847A",
"z.	c #8C7D74",
"A.	c #786964",
"B.	c #554544",
"C.	c #3C2724",
"D.	c #381D17",
"E.	c #3F1D17",
"F.	c #563329",
"G.	c #897A7B",
"H.	c #A7A6B8",
"I.	c #704D55",
"J.	c #87595C",
"K.	c #8B5C61",
"L.	c #967073",
"M.	c #A58085",
"N.	c #D5BEC9",
"O.	c #F0E6EB",
"P.	c #EFE4EA",
"Q.	c #C0A1A9",
"R.	c #B38488",
"S.	c #AB737A",
"T.	c #A9727A",
"U.	c #AA757C",
"V.	c #AE7C82",
"W.	c #AB767C",
"X.	c #AC777E",
"Y.	c #A77179",
"Z.	c #9C6C72",
"`.	c #885D64",
" +	c #6C494E",
".+	c #8D7C73",
"++	c #817268",
"@+	c #6D5E5A",
"#+	c #4F3A37",
"$+	c #39211B",
"%+	c #3A1C16",
"&+	c #3D1B15",
"*+	c #411E17",
"=+	c #4D221D",
"-+	c #795A59",
";+	c #9C9FA9",
">+	c #716579",
",+	c #835557",
"'+	c #844F53",
")+	c #86555D",
"!+	c #926C74",
"~+	c #B59A9E",
"{+	c #D8C9D2",
"]+	c #F6F2F2",
"^+	c #E1CDD4",
"/+	c #BC9599",
"(+	c #C19392",
"_+	c #A7797E",
":+	c #A6757D",
"<+	c #A5717B",
"[+	c #A3767D",
"}+	c #AF888F",
"|+	c #B99197",
"1+	c #9F6971",
"2+	c #95606A",
"3+	c #83555D",
"4+	c #6C474F",
"5+	c #594540",
"6+	c #432823",
"7+	c #421F1B",
"8+	c #412018",
"9+	c #3F1F18",
"0+	c #401F18",
"a+	c #461F18",
"b+	c #53211C",
"c+	c #6C3C3E",
"d+	c #72525A",
"e+	c #84798C",
"f+	c #7C494F",
"g+	c #834748",
"h+	c #82474D",
"i+	c #855157",
"j+	c #966E75",
"k+	c #C6B3BC",
"l+	c #E2DBE2",
"m+	c #F3EEEF",
"n+	c #CBB4BB",
"o+	c #D8AEAE",
"p+	c #AB777B",
"q+	c #A06D76",
"r+	c #A4757D",
"s+	c #A47881",
"t+	c #A3777D",
"u+	c #A0777F",
"v+	c #9D7B83",
"w+	c #9B6F77",
"x+	c #955E66",
"y+	c #83535A",
"z+	c #6B454B",
"A+	c #3E1F18",
"B+	c #3D1E17",
"C+	c #431F1B",
"D+	c #44201A",
"E+	c #48201A",
"F+	c #4E211C",
"G+	c #572320",
"H+	c #642A2A",
"I+	c #75484B",
"J+	c #795B5E",
"K+	c #794D52",
"L+	c #7F4547",
"M+	c #864B4D",
"N+	c #864F55",
"O+	c #8B555C",
"P+	c #A17982",
"Q+	c #CFC0CB",
"R+	c #EFEBF1",
"S+	c #E2D8DE",
"T+	c #C1A3A9",
"U+	c #CC9E9C",
"V+	c #A57375",
"W+	c #A37077",
"X+	c #A4767B",
"Y+	c #A57B7F",
"Z+	c #AE8988",
"`+	c #9D7375",
" @	c #9B7C7C",
".@	c #9C717A",
"+@	c #9A656F",
"@@	c #86595F",
"#@	c #6C474D",
"$@	c #43201A",
"%@	c #431F19",
"&@	c #54231F",
"*@	c #5A241F",
"=@	c #602624",
"-@	c #6C2929",
";@	c #753E43",
">@	c #6E383F",
",@	c #856973",
"'@	c #824B51",
")@	c #8B5155",
"!@	c #8B5760",
"~@	c #8C5A62",
"{@	c #9D777F",
"]@	c #D5CBD3",
"^@	c #EDEBEE",
"/@	c #CDB9C3",
"(@	c #D0AAAA",
"_@	c #D4A39F",
":@	c #A7777B",
"<@	c #A87880",
"[@	c #AB7F84",
"}@	c #AA7F84",
"|@	c #C6A59D",
"1@	c #A67B7B",
"2@	c #96757A",
"3@	c #A16F78",
"4@	c #9A666D",
"5@	c #875961",
"6@	c #6C484F",
"7@	c #4F231F",
"8@	c #54231E",
"9@	c #642924",
"0@	c #6C2A29",
"a@	c #702C2D",
"b@	c #772F32",
"c@	c #7D373A",
"d@	c #764249",
"e@	c #814F58",
"f@	c #825359",
"g@	c #8A5054",
"h@	c #8F555A",
"i@	c #8C5863",
"j@	c #8D5B63",
"k@	c #915F66",
"l@	c #976A73",
"m@	c #E9DDE7",
"n@	c #EAE9EC",
"o@	c #BEA5AA",
"p@	c #DFB0AD",
"q@	c #C69593",
"r@	c #A9787D",
"s@	c #A97B81",
"t@	c #AC7F85",
"u@	c #B5898D",
"v@	c #B78B89",
"w@	c #A3797B",
"x@	c #93757F",
"y@	c #A56F77",
"z@	c #9C686E",
"A@	c #885A61",
"B@	c #6E4A4F",
"C@	c #602928",
"D@	c #67282B",
"E@	c #793131",
"F@	c #823839",
"G@	c #873D41",
"H@	c #863F46",
"I@	c #80474D",
"J@	c #7B444F",
"K@	c #88575E",
"L@	c #8D595D",
"M@	c #8F545A",
"N@	c #90585E",
"O@	c #8D5B61",
"P@	c #986F75",
"Q@	c #A98790",
"R@	c #EBE2E8",
"S@	c #DDD3DA",
"T@	c #BB9B9F",
"U@	c #EEC2BB",
"V@	c #AA7777",
"W@	c #A7737A",
"X@	c #A97C81",
"Y@	c #AC7D81",
"Z@	c #B17F7E",
"`@	c #AF7D7D",
" #	c #A17779",
".#	c #977580",
"+#	c #A76F76",
"@#	c #9D686F",
"##	c #6D474D",
"$#	c #7B3336",
"%#	c #7E363C",
"&#	c #8B3D3F",
"*#	c #8C4044",
"=#	c #8D434B",
"-#	c #89484F",
";#	c #7B4A54",
">#	c #834650",
",#	c #916265",
"'#	c #8F5F63",
")#	c #91595E",
"!#	c #925D64",
"~#	c #925F68",
"{#	c #94636A",
"]#	c #A48387",
"^#	c #B498A0",
"/#	c #E1CFD5",
"(#	c #C4ADB4",
"_#	c #B59196",
":#	c #C49695",
"<#	c #A6777B",
"[#	c #A47477",
"}#	c #AC7F82",
"|#	c #AC7B80",
"1#	c #B8857F",
"2#	c #A87978",
"3#	c #997379",
"4#	c #9F757D",
"5#	c #A56F76",
"6#	c #9A656C",
"7#	c #87565D",
"8#	c #6C454A",
"9#	c #873A42",
"0#	c #8A3E45",
"a#	c #9D4F55",
"b#	c #9F565F",
"c#	c #98545E",
"d#	c #874A54",
"e#	c #834C57",
"f#	c #8D535A",
"g#	c #96696D",
"h#	c #936163",
"i#	c #946067",
"j#	c #956169",
"k#	c #97636B",
"l#	c #9D6C73",
"m#	c #B09297",
"n#	c #C7B4BC",
"o#	c #D7C1C6",
"p#	c #A7878D",
"q#	c #C7A4A6",
"r#	c #B18285",
"s#	c #A77A7F",
"t#	c #A4777A",
"u#	c #AE8183",
"v#	c #AC7A7B",
"w#	c #B9867F",
"x#	c #A6787D",
"y#	c #967580",
"z#	c #A8757C",
"A#	c #A76F77",
"B#	c #9B676D",
"C#	c #88595F",
"D#	c #6F484D",
"E#	c #9A505B",
"F#	c #98515D",
"G#	c #A45A67",
"H#	c #A45F6C",
"I#	c #9A5A64",
"J#	c #80434D",
"K#	c #8A4E5A",
"L#	c #935E67",
"M#	c #9D7780",
"N#	c #956775",
"O#	c #97656D",
"P#	c #98656D",
"Q#	c #9D6971",
"R#	c #9F6F75",
"S#	c #B08F97",
"T#	c #E4DADD",
"U#	c #AF8B95",
"V#	c #A98189",
"W#	c #C7A19E",
"X#	c #A2757B",
"Y#	c #AA8186",
"Z#	c #A97C7F",
"`#	c #AD7E83",
" $	c #AD7D7F",
".$	c #AB7A7B",
"+$	c #A1777D",
"@$	c #987882",
"#$	c #AB757B",
"$$	c #A97179",
"%$	c #9E6870",
"&$	c #895C61",
"*$	c #6F494E",
"=$	c #A5616C",
"-$	c #9C5961",
";$	c #A75D6B",
">$	c #AA6870",
",$	c #945A63",
"'$	c #854A52",
")$	c #91565E",
"!$	c #99646C",
"~$	c #BCAAB6",
"{$	c #956875",
"]$	c #93575E",
"^$	c #82424B",
"/$	c #71333B",
"($	c #61272F",
"_$	c #B3A5B1",
":$	c #A393A3",
"<$	c #886171",
"[$	c #A98584",
"}$	c #8A5D66",
"|$	c #9D7176",
"1$	c #AA797F",
"2$	c #AD8186",
"3$	c #AC7E80",
"4$	c #A97B80",
"5$	c #9F7A81",
"6$	c #9E7981",
"7$	c #B1787F",
"8$	c #AB757A",
"9$	c #A06C72",
"0$	c #8C5E64",
"a$	c #6F494D",
"b$	c #AB6974",
"c$	c #A16269",
"d$	c #AA626F",
"e$	c #AB6871",
"f$	c #86515B",
"g$	c #8C4F5A",
"h$	c #965B65",
"i$	c #9B6F7B",
"j$	c #BAB9CB",
"k$	c #7D5763",
"l$	c #8F7884",
"m$	c #513C42",
"n$	c #433137",
"o$	c #6D6269",
"p$	c #D4DEE6",
"q$	c #E5EEF2",
"r$	c #E5EDF8",
"s$	c #DAE8F5",
"t$	c #EBEFF5",
"u$	c #BFC3D4",
"v$	c #92858F",
"w$	c #794048",
"x$	c #9D6169",
"y$	c #AB7B7F",
"z$	c #A57B81",
"A$	c #997985",
"B$	c #A7777F",
"C$	c #AF777A",
"D$	c #AB7379",
"E$	c #A06A70",
"F$	c #8B5B60",
"G$	c #6E474B",
"H$	c #AE6C75",
"I$	c #A96B73",
"J$	c #AC656D",
"K$	c #A96670",
"L$	c #81525E",
"M$	c #8F505A",
"N$	c #7E4952",
"O$	c #797C97",
"P$	c #C0C9D6",
"Q$	c #F5F5F3",
"R$	c #E9F1F4",
"S$	c #413F4B",
"T$	c #40353C",
"U$	c #A3A5AF",
"V$	c #DBE5ED",
"W$	c #D8E2EB",
"X$	c #F8F9F7",
"Y$	c #E9EFF4",
"Z$	c #E5EBF1",
"`$	c #E3EBF1",
" %	c #E1E9F0",
".%	c #867579",
"+%	c #5F3C46",
"@%	c #865761",
"#%	c #9F7881",
"$%	c #95767F",
"%%	c #AD747B",
"&%	c #AD747A",
"*%	c #A86F75",
"=%	c #9D676B",
"-%	c #89585C",
";%	c #6D4548",
">%	c #AE6D75",
",%	c #AF6F78",
"'%	c #B4727B",
")%	c #A36670",
"!%	c #814956",
"~%	c #6E444D",
"{%	c #3A2D31",
"]%	c #C5C6CB",
"^%	c #F1F1F3",
"/%	c #B3B6BE",
"(%	c #77757F",
"_%	c #3D353F",
":%	c #57565F",
"<%	c #BDC9D5",
"[%	c #E1EBF2",
"}%	c #CDDBE7",
"|%	c #E9EFF3",
"1%	c #CECAC9",
"2%	c #BCBABB",
"3%	c #D0D0CC",
"4%	c #554F5A",
"5%	c #4C434F",
"6%	c #4A4A57",
"7%	c #393339",
"8%	c #856772",
"9%	c #99727B",
"0%	c #AF7379",
"a%	c #AE7279",
"b%	c #A86D73",
"c%	c #9C6469",
"d%	c #88575C",
"e%	c #6D4549",
"f%	c #B17178",
"g%	c #A96D74",
"h%	c #B4737B",
"i%	c #A76E7A",
"j%	c #7B4B57",
"k%	c #3A2C31",
"l%	c #51464A",
"m%	c #A5A4AB",
"n%	c #605D67",
"o%	c #4E4851",
"p%	c #433B40",
"q%	c #3E3C43",
"r%	c #757D89",
"s%	c #CEDCE7",
"t%	c #E1EAF1",
"u%	c #D5E1EB",
"v%	c #B7ABA3",
"w%	c #D2CDC9",
"x%	c #ACABAD",
"y%	c #57525E",
"z%	c #4C4A58",
"A%	c #444855",
"B%	c #43424D",
"C%	c #837881",
"D%	c #A47379",
"E%	c #AF7277",
"F%	c #AB7075",
"G%	c #A56B6F",
"H%	c #9B6368",
"I%	c #865559",
"J%	c #6B4347",
"K%	c #B3747C",
"L%	c #A86C74",
"M%	c #B6767E",
"N%	c #A96E78",
"O%	c #67414B",
"P%	c #3C3238",
"Q%	c #43383B",
"R%	c #47333B",
"S%	c #47363D",
"T%	c #473B43",
"U%	c #433940",
"V%	c #4D4E5C",
"W%	c #8F98A5",
"X%	c #C1CFDD",
"Y%	c #D4DDE7",
"Z%	c #DEE8EF",
"`%	c #DDE4E9",
" &	c #B4A79D",
".&	c #D5D2CC",
"+&	c #838590",
"@&	c #484753",
"#&	c #4F4F5D",
"$&	c #3D404C",
"%&	c #5F626D",
"&&	c #A5999E",
"*&	c #AD767B",
"=&	c #AD7177",
"-&	c #AA6D74",
";&	c #A5696F",
">&	c #9A6266",
",&	c #865359",
"'&	c #6A4044",
")&	c #AF7178",
"!&	c #AE6F78",
"~&	c #BD7C83",
"{&	c #B17781",
"]&	c #745661",
"^&	c #484452",
"/&	c #3E3439",
"(&	c #433338",
"_&	c #47343A",
":&	c #493B44",
"<&	c #473F48",
"[&	c #636675",
"}&	c #ADB7C5",
"|&	c #BFCDDB",
"1&	c #C2CFDB",
"2&	c #CDDAE9",
"3&	c #CAD2DD",
"4&	c #A49A93",
"5&	c #9F9F9F",
"6&	c #514F5B",
"7&	c #4B4955",
"8&	c #494B55",
"9&	c #3F4150",
"0&	c #A7AFBA",
"a&	c #B89EA0",
"b&	c #AE7577",
"c&	c #AB6E74",
"d&	c #A96C71",
"e&	c #A76B70",
"f&	c #87545A",
"g&	c #6B4247",
"h&	c #B3757C",
"i&	c #B2767C",
"j&	c #BE7F86",
"k&	c #B87D85",
"l&	c #79525D",
"m&	c #726F7D",
"n&	c #3D343B",
"o&	c #44383F",
"p&	c #493B3F",
"q&	c #473C43",
"r&	c #4F4C56",
"s&	c #636574",
"t&	c #A9B3BF",
"u&	c #BDCBD7",
"v&	c #CBD9E9",
"w&	c #C0CBD7",
"x&	c #9FA0A3",
"y&	c #5D626F",
"z&	c #494955",
"A&	c #5A5E6D",
"B&	c #454A53",
"C&	c #5E687A",
"D&	c #8F919A",
"E&	c #A7777D",
"F&	c #AB7277",
"G&	c #AA6E73",
"H&	c #A66B70",
"I&	c #6C4247",
"J&	c #B57781",
"K&	c #AE757A",
"L&	c #C18489",
"M&	c #C08189",
"N&	c #825562",
"O&	c #8F8A8B",
"P&	c #433D42",
"Q&	c #433B43",
"R&	c #453D47",
"S&	c #565763",
"T&	c #5F6371",
"U&	c #929AA6",
"V&	c #C0CDDB",
"W&	c #C6D4E2",
"X&	c #B3C1CE",
"Y&	c #99A5B2",
"Z&	c #6F7582",
"`&	c #515561",
" *	c #474853",
".*	c #5C6C81",
"+*	c #878D9A",
"@*	c #735B65",
"#*	c #AB6F76",
"$*	c #AB6F75",
"%*	c #A96C73",
"&*	c #A56A6F",
"**	c #996165",
"=*	c #875459",
"-*	c #BC8086",
";*	c #BF8285",
">*	c #B0767C",
",*	c #9A6671",
"'*	c #654A54",
")*	c #717983",
"!*	c #494851",
"~*	c #463C44",
"{*	c #4A3D48",
"]*	c #534F59",
"^*	c #585E6B",
"/*	c #757E8D",
"(*	c #C2D2E2",
"_*	c #C0CFDD",
":*	c #A4AFBD",
"<*	c #9199A6",
"[*	c #C9CFD6",
"}*	c #7D7D88",
"|*	c #606374",
"1*	c #61697B",
"2*	c #53505A",
"3*	c #4A424D",
"4*	c #996970",
"5*	c #AA6D72",
"6*	c #A96C72",
"7*	c #A96B72",
"8*	c #A96A71",
"9*	c #A4676C",
"0*	c #9A6064",
"a*	c #C08588",
"b*	c #AF757B",
"c*	c #B97A81",
"d*	c #B37A80",
"e*	c #B1767E",
"f*	c #704E57",
"g*	c #504146",
"h*	c #65636A",
"i*	c #56535C",
"j*	c #554D52",
"k*	c #514B4F",
"l*	c #484851",
"m*	c #6F7681",
"n*	c #BCCBDB",
"o*	c #B5C1D1",
"p*	c #777F8B",
"q*	c #79808D",
"r*	c #7E848D",
"s*	c #7B7F87",
"t*	c #494C58",
"u*	c #39343D",
"v*	c #3A373F",
"w*	c #77565F",
"x*	c #AA6C71",
"y*	c #A96B70",
"z*	c #A7696F",
"A*	c #A7696E",
"B*	c #A3666C",
"C*	c #995F65",
"D*	c #865558",
"E*	c #6C4447",
"F*	c #B27A81",
"G*	c #AC747B",
"H*	c #BD7E86",
"I*	c #BD8086",
"J*	c #B77A80",
"K*	c #9D6C71",
"L*	c #917E7E",
"M*	c #A9948E",
"N*	c #887772",
"O*	c #655353",
"P*	c #5D494D",
"Q*	c #483C45",
"R*	c #666068",
"S*	c #848995",
"T*	c #979EAA",
"U*	c #999FAB",
"V*	c #747685",
"W*	c #4B4852",
"X*	c #3C393E",
"Y*	c #333035",
"Z*	c #39353C",
"`*	c #614952",
" =	c #A86C71",
".=	c #A96B71",
"+=	c #AB6C71",
"@=	c #985F65",
"#=	c #B47B81",
"$=	c #B47C82",
"%=	c #C3848A",
"&=	c #BE8086",
"*=	c #B6787F",
"==	c #AC767A",
"-=	c #9D7975",
";=	c #D3BEB1",
">=	c #C6A99A",
",=	c #645757",
"'=	c #4F4549",
")=	c #41353C",
"!=	c #41373F",
"~=	c #45444F",
"{=	c #3A383F",
"]=	c #47454E",
"^=	c #3C3741",
"/=	c #333036",
"(=	c #323033",
"_=	c #383338",
":=	c #65474C",
"<=	c #A46C72",
"[=	c #AC6B71",
"}=	c #A7696D",
"|=	c #A3666B",
"1=	c #985F64",
"2=	c #845158",
"3=	c #6A4045",
"4=	c #BB7F86",
"5=	c #B57B82",
"6=	c #C4848A",
"7=	c #BE8085",
"8=	c #B4787B",
"9=	c #AB7477",
"0=	c #A36F72",
"a=	c #BFA8A4",
"b=	c #E2D1C6",
"c=	c #826E6F",
"d=	c #574649",
"e=	c #4C4143",
"f=	c #413137",
"g=	c #423338",
"h=	c #453138",
"i=	c #3C3034",
"j=	c #382F32",
"k=	c #49333B",
"l=	c #7C5158",
"m=	c #A46C71",
"n=	c #A76A6E",
"o=	c #A5696D",
"p=	c #A5686E",
"q=	c #A46870",
"r=	c #A36369",
"s=	c #965D61",
"t=	c #835057",
"u=	c #6A4046",
"v=	c #BC7F86",
"w=	c #B77D82",
"x=	c #C48489",
"y=	c #BA7C81",
"z=	c #A87074",
"A=	c #9C696C",
"B=	c #986668",
"C=	c #976969",
"D=	c #CDC3BC",
"E=	c #8F7C7B",
"F=	c #6E5E5F",
"G=	c #503E42",
"H=	c #453135",
"I=	c #482F31",
"J=	c #4E3135",
"K=	c #543237",
"L=	c #67383E",
"M=	c #774B4F",
"N=	c #925F63",
"O=	c #9A6466",
"P=	c #996366",
"Q=	c #986166",
"R=	c #965F66",
"S=	c #975F66",
"T=	c #986066",
"U=	c #965F64",
"V=	c #965E63",
"W=	c #935B60",
"X=	c #835056",
"Y=	c #673E43",
"Z=	c #BF8388",
"`=	c #B77D81",
" -	c #BB8083",
".-	c #A36D72",
"+-	c #885C5F",
"@-	c #805556",
"#-	c #815556",
"$-	c #805658",
"%-	c #836565",
"&-	c #8B7774",
"*-	c #806864",
"=-	c #5F4A4E",
"--	c #53343B",
";-	c #5E393D",
">-	c #6E4144",
",-	c #7B4C50",
"'-	c #855558",
")-	c #825657",
"!-	c #825658",
"~-	c #815557",
"{-	c #805355",
"]-	c #805356",
"^-	c #805255",
"/-	c #805254",
"(-	c #805155",
"_-	c #7E5054",
":-	c #7E4F53",
"<-	c #7C4D50",
"[-	c #663D42",
"}-	c #BE8588",
"|-	c #B17B7D",
"1-	c #986A6A",
"2-	c #6E4B4D",
"3-	c #5F4041",
"4-	c #603F41",
"5-	c #6D5857",
"6-	c #675657",
"7-	c #66585B",
"8-	c #5C3E3E",
"9-	c #5E3F40",
"0-	c #5F3F41",
"a-	c #5F3F3F",
"b-	c #603E40",
"c-	c #60403F",
"d-	c #604040",
"e-	c #603F40",
"f-	c #5E3E3F",
"g-	c #5E3D3E",
"h-	c #5E3C3E",
"i-	c #5E3C3D",
"j-	c #5D3B3D",
"k-	c #5D3B3E",
"l-	c #5C3B3D",
"m-	c #5B3A3B",
"n-	c #5C3A3B",
"o-	c #5D383B",
"  . + @ # $ % & * = - ; > , ' ) ! ~ { ] ^ / ( _ : < [ } | 1 2 3 ",
"4 5 6 7 7 8 9 9 0 0 a b c d e f g h i j k l m n o p q r s t u v ",
"w x y z A B C D E F G H I J K L M N O P Q m R S o T U V W X Y Z ",
"`  ...+.@.#.$.%.&.*.=.-.;.>.,.'.).!.~.{.].^././.(._.:.<.[.}.|.1.",
"2.3.4.5.6.7.8.9.0.a.b.c.d.e.f.g.h.i.j.k.l.m.n.n.o.p.q.r.s.t.u.v.",
"w.x.y.z.A.B.C.D.E.F.G.H.I.J.K.L.M.N.O.P.Q.R.S.T.U.V.W.X.Y.Z.`. +",
".+++@+#+$+%+&+*+=+-+;+>+,+'+)+!+~+{+]+^+/+(+_+:+<+[+}+|+1+2+3+4+",
"5+6+7+8+9+0+a+b+c+d+e+f+g+h+i+j+k+l+m+n+o+p+q+r+s+t+u+v+w+x+y+z+",
"A+B+C+D+E+F+G+H+I+J+K+L+M+N+O+P+Q+R+S+T+U+V+W+X+Y+Z+`+ @.@+@@@#@",
"$@%@=+&@*@=@-@;@>@,@'@M+)@!@~@{@]@^@/@(@_@:@<@[@}@|@1@2@3@4@5@6@",
"7@8@9@0@a@b@c@d@e@f@g@h@i@j@k@l@m@n@o@p@q@r@s@t@u@v@w@x@y@z@A@B@",
"C@D@E@F@G@H@I@J@K@L@M@N@j@O@P@Q@R@S@T@U@V@W@X@Y@Z@`@ #.#+#@#A@##",
"$#%#&#*#=#-#;#>#,#'#)#!#~#{#]#^#/#(#_#:#<#[#}#|#1#2#3#4#5#6#7#8#",
"9#0#a#b#c#d#e#f#g#h#i#j#k#l#m#n#o#p#q#r#s#t#u#v#w#x#y#z#A#B#C#D#",
"E#F#G#H#I#J#K#L#M#N#O#P#Q#R#S#T#U#V#W#X#Y#Z#`# $.$+$@$#$$$%$&$*$",
"=$-$;$>$,$'$)$!$~${$]$^$/$($_$' :$<$[$}$|$1$2$3$4$5$6$7$8$9$0$a$",
"b$c$d$e$f$g$h$i$j$k$l$m$n$o$p$q$r$s$t$u$v$w$x$y$z$A$B$C$D$E$F$G$",
"H$I$J$K$L$M$N$O$P$Q$R$S$T$U$V$W$X$Y$Z$`$ %.%+%@%#%$%%%&%*%=%-%;%",
">%,%'%)%!%~%{%]%^%/%(%_%:%<%[%}%|%1%2%3%4%5%6%7%8%9%0%a%b%c%d%e%",
"f%g%h%i%j%k%l%m%n%o%p%q%r%s%t%u%[%v%w%x%y%z%A%B%C%D%E%F%G%H%I%J%",
"K%L%M%N%O%P%Q%R%S%T%U%V%W%X%Y%Z%`% &.&+&@&#&$&%&&&*&=&-&;&>&,&'&",
")&!&~&{&]&^&/&(&_&:&<&[&}&|&1&2&3&4&5&6&7&8&9&0&a&b&c&d&e&H%f&g&",
"h&i&j&k&l&m&n&o&p&q&r&s&t&u&|&v&w&x&y&z&A&B&C&D&E&F&G&g%H&H%,&I&",
"J&K&L&M&N&O&7&P&Q&R&S&T&U&V&X%W&X&Y&Z&`& *.*+*@*#*$*-&%*&***=*g&",
"j&-*;*>*,*'*)*!*~*{*]*^*/*(*_*:*<*[*}*|*1*2*3*4*5*6*7*8*9*0*=*g&",
"a*b*c*d*e*f*g*h*i*j*k*l*m*n*o*p*q*r*s*t*u*v*w*x*x*y*z*A*B*C*D*E*",
"F*G*H*I*J*K*L*M*N*O*P*Q*R*S*T*U*V*W*X*Y*Z*`* =.=+=y*z*A*B*@=,&g&",
"#=$=%=&=*===-=;=>=,='=)=!=~={=]=^=/=(=_=:=<=[=x*x*y*y*}=|=1=2=3=",
"4=5=6=7=8=9=0=a=b=c=d=e=f=g=f=h=i=j=k=l=m=H&n=o=p=q=p=B*r=s=t=u=",
"v=w=x=y=z=A=B=C=D=E=F=G=H=I=J=K=L=M=N=O=P=Q=**Q=R=S=T=U=V=W=X=Y=",
"Z=`= -.-+-@-#-$-%-&-*-=---;->-,-'-#-)-!-~-{-]-^-/-/-(-(-_-:-<-[-",
"}-|-1-2-3-3-4-4-5-6-7-8-9-0-a-b-a-a-c-d-e-f-g-h-i-j-j-k-l-m-n-o-"};
